<svg xmlns="http://www.w3.org/2000/svg" fill="none" viewBox="0 0 500 500"><g clip-path="url(#a)"><circle cx="250" cy="250" r="250" fill="#fff"/><g id="a"/><g id="b"><g id="c"><path d="M168.07,106.31l8.89-8.89-3.14-11.71v-31.4l-16.46-9.51v-12.58l-10.5-6.06L124.67,3.97l-18.36,4.92L97.41,0l-11.71,3.14h-31.39l-9.51,16.46h-12.58l-6.06,10.5L3.97,52.3l4.92,18.36L0,79.55l3.14,11.7v31.4l16.47,9.51v12.58l10.5,6.06,22.2,22.2,18.36-4.92,8.89,8.89,11.7-3.14h31.4l9.51-16.47h12.58l6.06-10.5,22.2-22.2-4.92-18.36ZM22.64,133.92l8.11,4.68-2.1,7.85-6-3.47v-9.06ZM6.18,102.61l2.63,9.81,.07,.28,10.72,2.87v13.08l-13.42-7.75v-18.29ZM154.32,43.05l-8.11-4.68,2.1-7.85,6.01,3.47v9.06Zm16.46,31.31l-2.63-9.81-.07-.28-10.72-2.87v-13.08l13.42,7.75v18.29Zm-53.38,60.73l.77,.77-.28,1.05-.49-1.82Zm-6.99-37.15l-9.47,16.39-3.65-3.65-18.29,4.9v-5.16l-16.39-9.46,3.65-3.65-4.9-18.29h5.16l9.47-16.39,3.65,3.65,18.28-4.9v5.16l16.39,9.47-3.65,3.65,4.9,18.29h-5.16Zm-70.37,19.96l1.82-.49-.77,.77-1.05-.28Zm-6.07-41.91l-.54-.94,1.63,.94h-1.09Zm25.57-34.11l-.77-.77,.28-1.05,.49,1.82Zm77.35,17.19l-1.82,.49,.77-.77,1.05,.28Zm6.07,41.91l.54,.94-1.63-.94h1.09Zm1.9-2.79l-.14-.25h-8.11l-10.55-6.09,5.81-5.81,27.55,7.38-12.98,7.49-1.58-2.73Zm-14.34-.25h-10.56l3.86-3.86,6.69,3.86Zm-12.45-2.41l-1.52-5.66,4.55,2.63-3.03,3.03Zm-4.01-14.97l.33-.33v1.55l-.33-1.22Zm21.15-25.09l-.28-.07-5.74,5.74-11.76,3.15v-8.21l24.7-14.26-3.88,14.47-3.04-.82Zm-10.32,9.96l-7.46,7.46v-5.46l7.46-2Zm-10.5,7.1l-5.07-2.93,5.07-1.36v4.29Zm-13.42-7.75v-.46l1.09,1.09-1.09-.63Zm0-29.71v-1.09l.94-.54-.94,1.63Zm-2.79-2.99l-.25,.14v8.11l-6.09,10.55-5.81-5.81,7.38-27.55,7.49,12.98-2.73,1.58Zm-.25,14.34v10.55l-3.86-3.86,3.86-6.69Zm-2.4,12.45l-5.66,1.52,2.63-4.55,3.03,3.03Zm-14.97,4.01l-.33-.33h1.55l-1.22,.33Zm-15.13-10.83l7.47,7.47h-5.47l-2-7.47Zm7.1,10.51l-2.93,5.08-1.36-5.08h4.29Zm-7.75,13.43h-.46l1.1-1.09-.63,1.09Zm-32.7,2.79l.14,.25h8.11l10.55,6.09-5.81,5.81-27.55-7.38,12.98-7.49,1.57,2.73Zm14.34,.25h10.56l-3.86,3.86-6.69-3.86Zm12.45,2.4l1.52,5.66-4.55-2.63,3.03-3.03Zm4.01,14.97l-.33,.33v-1.54l.33,1.22Zm-21.15,25.09l.28,.07,5.74-5.74,11.77-3.15v8.21l-24.7,14.26,3.88-14.47,3.04,.82Zm10.32-9.96l7.46-7.46v5.46l-7.46,2Zm10.51-7.1l5.07,2.93-5.07,1.36v-4.29Zm13.42,7.75v.46l-1.09-1.09,1.09,.63Zm0,29.71v1.09l-.94,.54,.94-1.63Zm2.79,2.99l.25-.14v-8.11l6.09-10.55,5.81,5.81-7.38,27.55-7.49-12.98,2.73-1.58Zm.25-14.34v-10.55l3.86,3.86-3.86,6.69Zm2.4-12.45l5.66-1.52-2.63,4.55-3.03-3.03Zm14.97-4.01l.33,.33h-1.54l1.22-.33Zm15.13,10.83l-7.46-7.46h5.46l2,7.46Zm-7.1-10.51l2.93-5.07,1.36,5.07h-4.29Zm7.75-13.42h.46l-1.09,1.09,.63-1.09Zm42.14-36.2l-26.67,15.4-8.37-4.83,11.5-11.5,8.99-2.41,.28-.07,.37-1.37,13.91,3.73v1.05ZM118.28,25.17l-7.97,29.75-9.33,2.5v-16.26l4.8-8.31-.71-1.22,12.47-7.2,.74,.74Zm-53.5-2.53l15.4,26.67-4.83,8.37-11.5-11.5-2.41-8.99-.07-.28-1.37-.37,3.73-13.91h1.05Zm-8.5,16.06l-.89,3.32,5.73,5.73,3.15,11.77h-8.21l-14.26-24.7,14.47,3.88Zm-31.11,19.98l29.75,7.97,2.5,9.33h-16.26l-8.31-4.8-1.22,.71-7.2-12.47,.74-.74Zm-2.53,53.5l26.67-15.4,8.37,4.83-11.5,11.5-8.99,2.41-.28,.07-.37,1.37-13.91-3.73v-1.05Zm36.04,39.61l7.97-29.75,9.33-2.5v16.26l-4.8,8.31,.71,1.22-12.47,7.2-.74-.74Zm53.5,2.53l-15.4-26.67,4.83-8.36,11.5,11.5,2.41,8.99,.07,.28,1.37,.37-3.73,13.91h-1.05Zm8.5-16.06l.81-3.04,.07-.28-5.74-5.74-3.15-11.77h8.21l14.26,24.7-14.47-3.88Zm31.11-19.98l-29.75-7.97-2.5-9.33h16.26l8.31,4.8,1.22-.71,7.2,12.47-.74,.74Zm-3.82-14.73l14.04-8.11,2.67,9.95-9.91,9.92-6.79-11.76Zm22.81-16.68l-7.63,4.41-31.9-8.55-.28-.07-7.62,7.63-5.9-3.41v-9.06l10.21,5.89,29.47-17.01,.25-.14v-1.99l8.24,2.21,5.19,19.35v.76Zm-29.58-29.8l4.2-15.66,8.92,5.15v14.02l-13.12-3.52Zm4.33-27.93l-2.28,8.51-28.61,16.52-.25,.14v10.79l-6.58,1.76-6.41-6.41,11.11-2.98,.28-.07,8.81-32.86,.07-.28-1.41-1.41,7.39-4.26,17.35,10.02,.54,.54Zm-41.99-.15l-8.11-14.04,9.95-2.67,9.92,9.92-11.76,6.79ZM86.87,6.18l4.41,7.63-8.55,31.9-.07,.28,7.62,7.62-3.41,5.91h-9.06l5.89-10.21-17.01-29.46-.14-.25h-1.99l2.21-8.24,19.35-5.19h.76Zm-29.8,29.59l-15.66-4.2,5.15-8.92h14.02l-3.52,13.12Zm-27.93-4.34l8.51,2.28,16.52,28.6,.14,.25h10.78l1.76,6.59-6.41,6.41-2.98-11.11-.07-.28-32.86-8.81-.28-.07-1.41,1.41-4.27-7.39,10.02-17.35,.54-.54Zm-.15,41.99l-14.04,8.11-2.67-9.95,9.92-9.92,6.79,11.76ZM6.18,90.1l7.63-4.41,31.9,8.55,.28,.07,7.63-7.63,5.9,3.41v9.06l-10.21-5.89-29.46,17.01-.25,.14v1.99l-8.24-2.21-5.19-19.35v-.76Zm29.58,29.8l-4.2,15.66-8.92-5.15v-14.02l13.12,3.52Zm-4.33,27.93l2.28-8.51,28.61-16.52,.25-.14v-10.78l6.58-1.76,6.41,6.41-11.11,2.98-.28,.07-8.81,32.86-.07,.28,1.41,1.41-7.39,4.26-17.35-10.02-.53-.53Zm41.99,.15l8.11,14.04-9.95,2.67-9.92-9.92,11.76-6.79Zm16.68,22.81l-4.41-7.63,8.55-31.9,.07-.28-7.62-7.62,3.41-5.9h9.06l-5.89,10.21,17.01,29.46,.14,.25h1.99l-2.21,8.24-19.35,5.19h-.75Zm29.8-29.59l15.66,4.2-5.15,8.92h-14.02l3.52-13.12Zm27.93,4.33l-8.51-2.28-16.52-28.61-.14-.25h-10.78l-1.76-6.59,6.41-6.41,2.98,11.11,.07,.28,32.86,8.81,.28,.07,1.41-1.41,4.26,7.39-10.02,17.35-.54,.53Zm16.92-51.67l7.04-4.06,1.79,6.7-6.41,6.41-2.42-9.04ZM127.65,15.07l-9.61,5.55-9.25-9.25,14.97-4.01,12.93,12.93-9.04-5.22Zm-33.78-2.85l-4.06-7.04,6.7-1.8,6.41,6.41-9.04,2.42Zm-29.32-3.42l-.28,.07-2.87,10.72h-13.08l7.75-13.42h18.29l-9.81,2.63Zm-26.18,21.95l-7.85-2.1,3.47-6.01h9.06l-4.68,8.11ZM15.08,49.32l5.55,9.61-9.25,9.25-4.01-14.97,12.93-12.93-5.22,9.04Zm-2.85,33.78l-7.04,4.06-1.79-6.7,6.41-6.41,2.42,9.04Zm37.09,78.79l9.61-5.55,9.25,9.25-14.97,4.01-12.93-12.93,9.04,5.22Zm33.78,2.85l4.06,7.04-6.7,1.79-6.41-6.41,9.04-2.42Zm29.32,3.42l.28-.07,2.87-10.72h13.08l-7.75,13.43h-18.29l9.81-2.63Zm26.18-21.95l7.85,2.1-3.47,6.01h-9.06l4.68-8.11Zm23.29-18.56l-5.55-9.61,9.25-9.25,4.01,14.97-12.93,12.93,5.22-9.04Z"/></g></g></g><defs><clipPath id="a"><path fill="#fff" d="M0 0h500v500H0z"/></clipPath></defs></svg>